# xmcd CD database file
#
# Track frame offsets:
#	150
#	20018
#	34155
#	48148
#	65424
#	80018
#	97212
#	113889
#	127230
#	146339
#	164383
#	185068
#
# Disc length: 2793 seconds
#
# Revision: 0
# Processed by: cddbd v1.5.1PL2 Copyright (c) Steve Scherf et al.
# Submitted via: CDex 1.51
#
DISCID=ae0ae70c
DTITLE=Marie Michèle Desrosiers - mes mélodies du bonheur
DYEAR=2003
DGENRE=Québécois
TTITLE0=la chanson d'Orphée - Manha do Carnaval
TTITLE1=c'est bon la vie
TTITLE2=chante ...comme si tu devais mourir demain
TTITLE3=What a wonderful world
TTITLE4=amène-toi chez-nous
TTITLE5=seul sur son étoile
TTITLE6=sûrement peut-être
TTITLE7=toute la pluie tombe sur moi
TTITLE8=what the world needs now is love
TTITLE9=fais comme l'oiseau
TTITLE10=quand les hommes vivront d'amour
TTITLE11=chansons des collines - the sound of music
EXTD=YEAR: 2003
EXTT0=
EXTT1=
EXTT2=
EXTT3=
EXTT4=
EXTT5=
EXTT6=
EXTT7=
EXTT8=
EXTT9=
EXTT10=
EXTT11=
PLAYORDER=
